<svg width="81" height="34" viewBox="0 0 81 34" fill="none" xmlns="http://www.w3.org/2000/svg" role="img" aria-labelledby="svg-leaf-motif">
  <title id="svg-leaf-motif">Leaf Motif</title>
  <path d="M52.3333 15.5833C52.3333 8.64166 47.3764 2.69166 40.5467 1.44074L40.2917 1.39258L40.0367 1.43933C33.2069 2.69166 28.25 8.64166 28.25 15.5833C28.25 22.1241 32.653 27.7808 38.875 29.4596V31.1667C38.875 31.9501 39.5097 32.5833 40.2917 32.5833C41.0737 32.5833 41.7083 31.9501 41.7083 31.1667V29.4596C47.9303 27.7808 52.3333 22.1241 52.3333 15.5833ZM41.7083 26.4917V22.2516L47.8765 16.0834C48.1528 15.8072 48.1528 15.3581 47.8765 15.0818C47.6003 14.8056 47.1512 14.8056 46.8749 15.0818L41.7083 20.2484V15.1682L45.0432 11.8334C45.3194 11.5572 45.3194 11.1081 45.0432 10.8318C44.7669 10.5556 44.3178 10.5556 44.0416 10.8318L41.7083 13.1651V8.49999C41.7083 7.71658 41.0737 7.08333 40.2917 7.08333C39.5097 7.08333 38.875 7.71658 38.875 8.49999V13.1651L36.5432 10.8318C36.2669 10.5556 35.8178 10.5556 35.5416 10.8318C35.2653 11.1081 35.2653 11.5572 35.5416 11.8334L38.8764 15.1682V20.2484L33.7112 15.0832C33.435 14.807 32.9859 14.807 32.7097 15.0832C32.4334 15.3595 32.4334 15.8086 32.7097 16.0848L38.8778 22.253V26.4917C34.2751 24.9107 31.0833 20.5714 31.0833 15.5833C31.0833 10.0952 34.9409 5.38191 40.2917 4.27691C45.6424 5.38191 49.5 10.0952 49.5 15.5833C49.5 20.5714 46.3082 24.9107 41.7083 26.4917Z" fill="#75C8AA"/>
  <path d="M77 20C77 15.1 73.501 10.9 68.68 10.017L68.5 9.983L68.32 10.016C63.499 10.9 60 15.1 60 20C60 24.617 63.108 28.61 67.5 29.795V31C67.5 31.553 67.948 32 68.5 32C69.052 32 69.5 31.553 69.5 31V29.795C73.892 28.61 77 24.617 77 20ZM69.5 27.7V24.707L73.854 20.353C74.049 20.158 74.049 19.841 73.854 19.646C73.659 19.451 73.342 19.451 73.147 19.646L69.5 23.293V19.707L71.854 17.353C72.049 17.158 72.049 16.841 71.854 16.646C71.659 16.451 71.342 16.451 71.147 16.646L69.5 18.293V15C69.5 14.447 69.052 14 68.5 14C67.948 14 67.5 14.447 67.5 15V18.293L65.854 16.646C65.659 16.451 65.342 16.451 65.147 16.646C64.952 16.841 64.952 17.158 65.147 17.353L67.501 19.707V23.293L63.855 19.647C63.66 19.452 63.343 19.452 63.148 19.647C62.953 19.842 62.953 20.159 63.148 20.354L67.502 24.708V27.7C64.253 26.584 62 23.521 62 20C62 16.126 64.723 12.799 68.5 12.019C72.277 12.799 75 16.126 75 20C75 23.521 72.747 26.584 69.5 27.7Z" fill="#75C8AA"/>
  <path d="M20 20C20 15.1 16.501 10.9 11.68 10.017L11.5 9.983L11.32 10.016C6.499 10.9 3 15.1 3 20C3 24.617 6.108 28.61 10.5 29.795V31C10.5 31.553 10.948 32 11.5 32C12.052 32 12.5 31.553 12.5 31V29.795C16.892 28.61 20 24.617 20 20ZM12.5 27.7V24.707L16.854 20.353C17.049 20.158 17.049 19.841 16.854 19.646C16.659 19.451 16.342 19.451 16.147 19.646L12.5 23.293V19.707L14.854 17.353C15.049 17.158 15.049 16.841 14.854 16.646C14.659 16.451 14.342 16.451 14.147 16.646L12.5 18.293V15C12.5 14.447 12.052 14 11.5 14C10.948 14 10.5 14.447 10.5 15V18.293L8.854 16.646C8.659 16.451 8.342 16.451 8.147 16.646C7.952 16.841 7.952 17.158 8.147 17.353L10.501 19.707V23.293L6.855 19.647C6.66 19.452 6.343 19.452 6.148 19.647C5.953 19.842 5.953 20.159 6.148 20.354L10.502 24.708V27.7C7.253 26.584 5 23.521 5 20C5 16.126 7.723 12.799 11.5 12.019C15.277 12.799 18 16.126 18 20C18 23.521 15.747 26.584 12.5 27.7Z" fill="#75C8AA"/>
</svg>
