<svg width="176" height="176" viewBox="0 0 176 176" fill="none" xmlns="http://www.w3.org/2000/svg" role="img" aria-labelledby="svg-trees-earth">
  <title id="svg-trees-earth">Trees surrounding Earth</title>
  <g filter="url(#filter0_d)">
  <g filter="url(#filter1_i)">
  <circle cx="84" cy="84" r="76" fill="#3E9CD0"/>
  </g>
  <circle cx="84" cy="84" r="75.5" stroke="#3E9CD0"/>
  <circle cx="82.9623" cy="84.9623" r="66" fill="#C7E9DD"/>
  <path d="M74.5248 116.003L74.5248 116.003L74.5275 116.004C81.1879 117.224 86.022 123.026 86.022 129.796C86.022 136.174 81.7283 141.691 75.6606 143.328L75.2909 143.428V143.81V145.535C75.2909 146.049 74.874 146.465 74.36 146.465C73.846 146.465 73.4292 146.049 73.4292 145.535V143.81V143.428L73.0595 143.328C66.9918 141.691 62.6981 136.174 62.6981 129.796C62.6981 123.026 67.5321 117.223 74.1927 116.002C74.1927 116.002 74.1927 116.002 74.1927 116.002L74.3587 115.972L74.5248 116.003ZM75.2909 140.813V141.513L75.9534 141.286C80.7978 139.621 84.1604 135.051 84.1604 129.796C84.1604 124.015 80.0971 119.051 74.4612 117.887L74.36 117.866L74.2589 117.887C68.623 119.051 64.5597 124.015 64.5597 129.796C64.5597 135.051 67.9224 139.621 72.7697 141.286L73.4321 141.513V140.813V136.532V136.325L73.2856 136.178L67.0559 129.949C66.9721 129.865 66.9721 129.728 67.0559 129.644C67.1396 129.56 67.2766 129.56 67.3603 129.644L72.5771 134.861L73.4307 135.714V134.507V129.376V129.169L73.2842 129.023L69.9161 125.655C69.8323 125.571 69.8323 125.434 69.9161 125.35C69.9998 125.266 70.1368 125.266 70.2205 125.35L72.5756 127.707L73.4292 128.561V127.353V122.642C73.4292 122.127 73.846 121.711 74.36 121.711C74.874 121.711 75.2909 122.127 75.2909 122.642V127.353V128.56L76.1444 127.707L78.501 125.35C78.5847 125.266 78.7217 125.266 78.8054 125.35C78.8892 125.434 78.8892 125.571 78.8054 125.655L75.4373 129.023L75.2909 129.169V129.376V134.507V135.714L76.1444 134.861L81.3626 129.643C81.4463 129.559 81.5833 129.559 81.6671 129.643C81.7508 129.726 81.7508 129.863 81.6671 129.947L75.4373 136.177L75.2909 136.323V136.53V140.813Z" fill="#3ABB8D" stroke="#3ABB8D"/>
  <path d="M51.0745 48.1624L51.0745 48.1624L51.0772 48.1629C54.2887 48.7511 56.6195 51.5488 56.6195 54.813C56.6195 57.8882 54.5494 60.5483 51.6237 61.3377L51.254 61.4374V61.8204V62.6825C51.254 62.8016 51.1576 62.8979 51.0386 62.8979C50.9195 62.8979 50.8231 62.8016 50.8231 62.6825V61.8204V61.4374L50.4534 61.3377C47.5278 60.5483 45.4576 57.8882 45.4576 54.813C45.4576 51.5488 47.7884 48.751 50.9999 48.1621C51 48.1621 51 48.1621 51 48.1621L51.0372 48.1553L51.0745 48.1624ZM51.254 60.3216V61.0222L51.9165 60.7945C54.4379 59.9279 56.1887 57.549 56.1887 54.813C56.1887 51.8038 54.0735 49.2195 51.1397 48.6136L51.0386 48.5928L50.9374 48.6136C48.0036 49.2195 45.8884 51.8038 45.8884 54.813C45.8884 57.5491 47.6392 59.9279 50.1621 60.7945L50.8246 61.022V60.3216V58.1811V57.974L50.8239 57.9733V57.1688V54.6034V54.3963L50.8231 54.3955V53.5918V51.2359C50.8231 51.1168 50.9195 51.0205 51.0386 51.0205C51.1576 51.0205 51.254 51.1168 51.254 51.2359V53.5918V54.3963V54.6034V54.7989V57.1688V57.9733V58.1804V58.3759V60.3216ZM47.3622 54.9142C47.3621 54.9141 47.362 54.9141 47.3619 54.914L47.3622 54.9142Z" fill="#3ABB8D" stroke="#3ABB8D"/>
  <path d="M61.6406 37.5962L61.6406 37.5962L61.6433 37.5967C64.8547 38.1849 67.1856 40.9826 67.1856 44.2468C67.1856 47.3221 65.1154 49.9821 62.1898 50.7715L61.82 50.8713V51.2542V52.1163C61.82 52.2355 61.7237 52.3317 61.6046 52.3317C61.4855 52.3317 61.3892 52.2355 61.3892 52.1163V51.2542V50.8713L61.0194 50.7715C58.0938 49.9821 56.0236 47.3221 56.0236 44.2468C56.0236 40.9827 58.3544 38.1849 61.566 37.596C61.566 37.596 61.566 37.596 61.566 37.596L61.6032 37.5892L61.6406 37.5962ZM61.82 49.7555V50.456L62.4825 50.2283C65.004 49.3617 66.7548 46.9828 66.7548 44.2468C66.7548 41.2376 64.6396 38.6533 61.7057 38.0475L61.6046 38.0266L61.5035 38.0475C58.5696 38.6533 56.4544 41.2376 56.4544 44.2468C56.4544 46.9829 58.2053 49.3618 60.7282 50.2283L61.3906 50.4559V49.7555V47.615V47.4079L61.3899 47.4071V46.6027V44.0372V43.8301L61.3892 43.8294V43.0256V40.6698C61.3892 40.5506 61.4855 40.4544 61.6046 40.4544C61.7237 40.4544 61.82 40.5506 61.82 40.6698V43.0256V43.8301V44.0372V44.2327V46.6027V47.4071V47.6142V47.8098V49.7555ZM57.9282 44.3481C57.9281 44.348 57.928 44.3479 57.928 44.3478L57.9282 44.3481Z" fill="#3ABB8D" stroke="#3ABB8D"/>
  <g clip-path="url(#clip0)">
  <circle cx="83" cy="85" r="19.8113" fill="#BADFF4"/>
  <path d="M83 65.1887C72.058 65.1887 63.1887 74.058 63.1887 85C63.1887 95.9421 72.058 104.811 83 104.811C93.9421 104.811 102.811 95.9421 102.811 85C102.811 74.058 93.9421 65.1887 83 65.1887ZM83 102.335C80.5645 102.335 78.2453 101.831 76.1428 100.925L85.1644 90.775C85.3662 90.5484 85.4777 90.2562 85.4777 89.9529V86.2382C85.4777 85.5548 84.9229 85 84.2395 85C79.8673 85 75.255 80.4546 75.2092 80.41C74.9764 80.1772 74.6619 80.0472 74.3338 80.0472H69.381C68.6975 80.0472 68.1428 80.6019 68.1428 81.2854V88.7147C68.1428 89.1839 68.4077 89.6124 68.8275 89.8216L73.0956 91.9563V99.2258C68.6046 96.0931 65.6663 90.8902 65.6663 85C65.6663 82.3416 66.2656 79.8231 67.3354 77.5708H71.8574C72.1855 77.5708 72.5012 77.4408 72.7328 77.208L77.6856 72.2552C77.9184 72.0224 78.0484 71.7079 78.0484 71.3798V68.3845C79.6185 67.9177 81.2801 67.6651 83.0012 67.6651C85.7253 67.6651 88.302 68.2941 90.5964 69.4135C90.4354 69.5484 90.2794 69.6908 90.1308 69.8407C88.728 71.2436 87.9553 73.1095 87.9553 75.0944C87.9553 77.0792 88.728 78.944 90.1308 80.3481C91.5412 81.7584 93.4282 82.5249 95.3796 82.5249C95.5022 82.5249 95.6248 82.5224 95.7474 82.5162C96.2823 84.5209 97.2468 89.7387 95.4217 96.9227C95.4044 96.9908 95.3945 97.0577 95.3895 97.1246C92.2432 100.339 87.8563 102.335 83.0025 102.335H83Z" fill="#3E9CD0"/>
  </g>
  <path d="M107.508 34.2282L107.508 34.2282L107.511 34.2287C114.702 35.5457 119.921 41.8105 119.921 49.1195C119.921 56.0059 115.286 61.9621 108.735 63.7296L108.365 63.8294V64.2124V66.0691C108.365 66.6448 107.899 67.11 107.324 67.11C106.749 67.11 106.283 66.6448 106.283 66.0691V64.2124V63.8294L105.913 63.7296C99.3622 61.9621 94.7264 56.0059 94.7264 49.1195C94.7264 41.8105 99.9456 35.5457 107.137 34.2271C107.137 34.2271 107.137 34.2271 107.137 34.2271L107.323 34.193L107.508 34.2282ZM108.365 60.9842V61.6848L109.027 61.4571C114.229 59.6692 117.84 54.762 117.84 49.1195C117.84 42.9124 113.477 37.5818 107.425 36.332L107.324 36.3111L107.223 36.332C101.171 37.5818 96.8082 42.9124 96.8082 49.1195C96.8082 54.762 100.419 59.6693 105.624 61.4571L106.286 61.6847V60.9842V56.3739V56.1668L106.14 56.0204L99.4307 49.3114C99.3255 49.2062 99.3255 49.0343 99.4307 48.9291C99.5359 48.8239 99.7078 48.8239 99.813 48.9291L105.431 54.5471L106.285 55.4007V54.1936V48.668V48.4609L106.138 48.3144L102.511 44.6872C102.406 44.582 102.406 44.4101 102.511 44.3049C102.616 44.1997 102.788 44.1997 102.893 44.3048C102.893 44.3048 102.893 44.3048 102.893 44.3048C102.893 44.3048 102.893 44.3049 102.893 44.3049L105.429 46.8426L106.283 47.6968V46.4892V41.415C106.283 40.8394 106.749 40.3742 107.324 40.3742C107.899 40.3742 108.365 40.8394 108.365 41.415V46.4892V47.6963L109.218 46.8427L111.756 44.3049C111.861 44.1997 112.033 44.1997 112.138 44.3049C112.244 44.4101 112.244 44.582 112.138 44.6872L108.511 48.3144L108.365 48.4609V48.668V54.1936V55.4007L109.218 54.5471L114.838 48.9275C114.943 48.8223 115.115 48.8223 115.22 48.9275C115.325 49.0327 115.325 49.2046 115.22 49.3098L108.511 56.0188L108.365 56.1653V56.3724V60.9842Z" fill="#3ABB8D" stroke="#3ABB8D"/>
  <g clip-path="url(#clip1)">
  <path d="M127.281 94.0874L127.281 94.0874L127.283 94.0879C130.23 94.6275 132.368 97.1941 132.368 100.189C132.368 103.01 130.469 105.45 127.785 106.174L127.415 106.274V106.657V107.453C127.415 107.541 127.343 107.613 127.255 107.613C127.166 107.613 127.094 107.541 127.094 107.453V106.657V106.274L126.725 106.174C124.041 105.45 122.141 103.01 122.141 100.189C122.141 97.1941 124.28 94.6274 127.226 94.0872C127.226 94.0872 127.226 94.0872 127.226 94.0872L127.253 94.0822L127.281 94.0874ZM127.415 105.274V105.974L128.078 105.746C130.42 104.941 132.047 102.731 132.047 100.189C132.047 97.3926 130.082 94.9914 127.356 94.4285L127.255 94.4076L127.154 94.4285C124.428 94.9914 122.462 97.3926 122.462 100.189C122.462 102.731 124.089 104.941 126.433 105.746L127.096 105.974V105.274V103.298V103.091L127.095 103.09V102.363V99.9951V99.788L127.094 99.7874V99.0613V96.8867C127.094 96.798 127.166 96.7263 127.255 96.7263C127.343 96.7263 127.415 96.798 127.415 96.8867V99.0613V99.788V99.9951V100.268V102.363V103.09V103.297V103.57V105.274Z" fill="#3ABB8D" stroke="#3ABB8D"/>
  </g>
  <path d="M118.356 104.653L118.356 104.653L118.359 104.654C121.305 105.193 123.443 107.76 123.443 110.755C123.443 113.576 121.544 116.016 118.86 116.74L118.491 116.84V117.223V118.019C118.491 118.107 118.419 118.179 118.33 118.179C118.242 118.179 118.17 118.107 118.17 118.019V117.223V116.84L117.8 116.74C115.116 116.016 113.217 113.576 113.217 110.755C113.217 107.76 115.355 105.193 118.302 104.653C118.302 104.653 118.302 104.653 118.302 104.653L118.329 104.648L118.356 104.653ZM118.491 115.839V116.54L119.153 116.312C121.496 115.507 123.123 113.297 123.123 110.755C123.123 107.959 121.157 105.557 118.431 104.994L118.33 104.974L118.229 104.994C115.503 105.557 113.538 107.959 113.538 110.755C113.538 113.297 115.165 115.507 117.509 116.312L118.171 116.54V115.839V113.864V113.656L118.17 113.656V112.929V110.561V110.354L118.17 110.353V109.627V107.453C118.17 107.364 118.242 107.292 118.33 107.292C118.419 107.292 118.491 107.364 118.491 107.453V109.627V110.354V110.561V110.834V112.929V113.656V113.863V114.136V115.839ZM114.909 110.875C114.909 110.875 114.909 110.875 114.909 110.875L114.909 110.875Z" fill="#3ABB8D" stroke="#3ABB8D"/>
  <path d="M41.6116 90.573L41.6116 90.5731L41.6143 90.5736C46.683 91.5019 50.3617 95.9176 50.3617 101.069C50.3617 105.923 47.0942 110.121 42.4767 111.367L42.1069 111.467V111.85V113.176C42.1069 113.508 41.838 113.777 41.5063 113.777C41.1746 113.777 40.9057 113.508 40.9057 113.176V111.85V111.467L40.5359 111.367C35.9184 110.121 32.651 105.923 32.651 101.069C32.651 95.9176 36.3297 91.5019 41.3984 90.5724C41.3984 90.5724 41.3984 90.5724 41.3984 90.5724L41.5049 90.5529L41.6116 90.573ZM42.1069 109.544V110.245L42.7695 110.017C46.5417 108.72 49.1604 105.162 49.1604 101.069C49.1604 96.5678 45.9963 92.7019 41.6074 91.7955L41.5063 91.7746L41.4052 91.7955C37.0164 92.7019 33.8522 96.5678 33.8522 101.069C33.8522 105.162 36.471 108.721 40.2455 110.017L40.9079 110.245V109.544V106.251V106.044L40.7614 105.898L35.9693 101.105C35.9499 101.086 35.9499 101.054 35.9693 101.034C35.9887 101.015 36.021 101.015 36.0403 101.034L40.0532 105.047L40.9068 105.901V104.694V100.747V100.54L40.7603 100.393L38.1695 97.8024C38.1501 97.783 38.1501 97.7507 38.1695 97.7314C38.1888 97.712 38.2211 97.712 38.2405 97.7314L40.052 99.544L40.9057 100.398V99.1905V95.5662C40.9057 95.234 41.1746 94.9655 41.5063 94.9655C41.838 94.9655 42.1069 95.234 42.1069 95.5662V99.1905V100.398L42.9605 99.5441L44.7732 97.7314C44.7926 97.712 44.8249 97.712 44.8443 97.7314C44.8636 97.7507 44.8636 97.783 44.8443 97.8024L42.2534 100.393L42.1069 100.54V100.747V104.694V105.901L42.9605 105.047L46.9745 101.033C46.9938 101.014 47.0262 101.014 47.0455 101.033C47.0649 101.053 47.0649 101.085 47.0455 101.104L42.2534 105.896L42.1069 106.043V106.25V109.544Z" fill="#3ABB8D" stroke="#3ABB8D"/>
  </g>
  <defs>
    <filter id="filter0_d" x="0" y="0" width="176" height="176" filterUnits="userSpaceOnUse" color-interpolation-filters="sRGB">
      <feFlood flood-opacity="0" result="BackgroundImageFix"/>
      <feColorMatrix in="SourceAlpha" type="matrix" values="0 0 0 0 0 0 0 0 0 0 0 0 0 0 0 0 0 0 127 0"/>
      <feOffset dx="4" dy="4"/>
      <feGaussianBlur stdDeviation="6"/>
      <feColorMatrix type="matrix" values="0 0 0 0 0 0 0 0 0 0 0 0 0 0 0 0 0 0 0.15 0"/>
      <feBlend mode="normal" in2="BackgroundImageFix" result="effect1_dropShadow"/>
      <feBlend mode="normal" in="SourceGraphic" in2="effect1_dropShadow" result="shape"/>
      </filter>
      <filter id="filter1_i" x="8" y="8" width="152" height="156" filterUnits="userSpaceOnUse" color-interpolation-filters="sRGB">
      <feFlood flood-opacity="0" result="BackgroundImageFix"/>
      <feBlend mode="normal" in="SourceGraphic" in2="BackgroundImageFix" result="shape"/>
      <feColorMatrix in="SourceAlpha" type="matrix" values="0 0 0 0 0 0 0 0 0 0 0 0 0 0 0 0 0 0 127 0" result="hardAlpha"/>
      <feOffset dy="4"/>
      <feGaussianBlur stdDeviation="4"/>
      <feComposite in2="hardAlpha" operator="arithmetic" k2="-1" k3="1"/>
      <feColorMatrix type="matrix" values="0 0 0 0 0 0 0 0 0 0 0 0 0 0 0 0 0 0 0.15 0"/>
      <feBlend mode="normal" in2="shape" result="effect1_innerShadow"/>
    </filter>
    <clipPath id="clip0">
      <rect width="39.6226" height="39.6226" fill="white" transform="translate(63.1887 65.1887)"/>
    </clipPath>
    <clipPath id="clip1">
      <rect width="15.8491" height="15.8491" fill="white" transform="translate(119.66 92.9246)"/>
    </clipPath>
  </defs>
</svg>
